<svg width="1920" height="1080" viewBox="0 0 1920 1080" xmlns="http://www.w3.org/2000/svg"><rect width="1920" height="1080" fill="#f5f7fa"/><path d="M2344.9937393123914,1132.9999999999998C2362.1080754077393,1237.9590375636274,2408.479358615252,1424.5079845247892,2405.980402063187,1500C2403.481445511122,1575.4920154752108,2410.496733677198,1523.4520928512643,2330,1585.9520928512643C2249.503266322802,1648.4520928512643,2046.6666666666665,1844.9055066688225,1923,1875C1799.3333333333335,1905.0944933311775,1694.9198421397218,1853.8734050498647,1588.0000000000002,1766.5190528383291C1481.0801578602786,1679.1647006267935,1347.3142804950044,1459.127062203842,1281.480947161671,1350.873886730787C1215.6476138283379,1242.6207112577322,1189.6666666666667,1217.6456477884644,1193,1117C1196.3333333333333,1016.3543522115356,1210.6389416047036,829.8069124603319,1301.4809471616709,747.0000000000002C1392.3229527186381,664.1930875396686,1633.465524535416,671.9744537753357,1738.0520333418042,620.1585252380103C1842.6385421481923,568.3425967006848,1831.5086722236342,458.59013491575155,1929,436.1044287760476C2026.4913277763658,413.61872263634365,2260.61760241815,412.8873974260887,2322.9999999999995,485.24428839978657C2385.382397581849,557.6011793734845,2299.628762272366,762.2864893515326,2303.294385491098,870.2457746182348C2306.96000870983,978.205059884937,2327.8794032170435,1028.0409624363722,2344.9937393123914,1132.9999999999998C2362.1080754077393,1237.9590375636274,2408.479358615252,1424.5079845247892,2405.980402063187,1500" fill="#e4e7eb"/></svg>